# xmcd CD database file
#
# Track frame offsets:
#	150
#	12872
#	22770
#	36270
#	45047
#	56985
#	70335
#	82910
#	95562
#	108627
#	122065
#	136017
#
# Disc length: 1942 seconds
#
# Revision: 0
# Processed by: cddbd v1.5.2PL0 Copyright (c) Steve Scherf et al.
# Submitted via: CDex 1.70beta2
#
DISCID=9107940c
DTITLE=Various Artist - Country Gold: 1950-54
DYEAR=2003
DGENRE=Country
TTITLE0=Hank Snow, The singing rangers and the rainbow ranch boys - I'm moving on
TTITLE1=Eddy Arnold - I wanna play house with you
TTITLE2=Pee Wee King and his Golden West Cowboys - Slow Poke
TTITLE3=Johnnie and Jack - (Oh Baby mine) I get so lonely
TTITLE4=Roy Rogers and the Sons of the Pioneers - Stampede
TTITLE5=Stuart Hamblen - This ole house
TTITLE6=June Valli with Joe Reisman and his Orchestra - Crying in the Chapel
TTITLE7=Homer and Jethro - (How much is) That Hound Dog in the Window
TTITLE8=Elton Britt and Rosalie Allen with The Skytoppers - Quicksilver
TTITLE9=The Davis Sisters - I forgot more than you'll ever know
TTITLE10=Betty Cody - I found out mote than you ever knew
TTITLE11=Terry Fell and The Fellers - Don't drop it
EXTD=YEAR: 2003
EXTT0=
EXTT1=
EXTT2=
EXTT3=
EXTT4=
EXTT5=
EXTT6=
EXTT7=
EXTT8=
EXTT9=
EXTT10=
EXTT11=
PLAYORDER=
